# xmcd
#
# Track frame offsets:
#	150
#	13130
#	32371
#	48515
#	64699
#	83319
#	96659
#	111604
#	126652
#	141398
#	158998
#	175757
#	190525
#	208689
#	226212
#	241504
#	257608
#	273848
#
# Disc length: 3866 seconds
#
# Revision: 4
# Processed by: cddbd v1.5.1PL0 Copyright (c) Steve Scherf et al.
# Submitted via: audiograbber 1.83.01
#
DISCID=f40f1812
DTITLE=2005-05 Country Radio - 2005-05 Country Radio
DYEAR=2005
DGENRE=Country
TTITLE0=Alan Jackson - The Talkin' Song Repair Blues
TTITLE1=Rascal Flatts - Fast Cars And Freedom
TTITLE2=Jason Aldean - Hicktown
TTITLE3=Sugarland - Something More
TTITLE4=Josh Gracin - Stay With Me (Brass Bed)
TTITLE5=Amanda Wilkinson - No More Me And You
TTITLE6=Cledus T. Judd - Paycheck Woman
TTITLE7=Mark Chesnutt - A Hard Secret To Keep
TTITLE8=Steve Holy - Go Home
TTITLE9=Miranda Lambert - Bring Me Down
TTITLE10=Shooter Jennings - 4th of July
TTITLE11=Cowboy Troy - I Play Chicken With The Train
TTITLE12=Rebecca Lynn Howard - No One'll Ever Love Me
TTITLE13=Carolina Rain - Louisiana Love
TTITLE14=Cowboy Crush - Nobody Ever Died Of A Broken Heart
TTITLE15=Roxie Dean - A Soldier's Wife
TTITLE16=The Neville Brothers - Walkin' In The Shadow Of Life
TTITLE17=Brittany Wells - Somebody's Somebody
EXTD=
EXTT0=
EXTT1=
EXTT2=
EXTT3=
EXTT4=
EXTT5=
EXTT6=
EXTT7=
EXTT8=
EXTT9=
EXTT10=
EXTT11=
EXTT12=
EXTT13=
EXTT14=
EXTT15=
EXTT16=
EXTT17=
PLAYORDER=
